<svg x="0" y="0" width="2160" height="1080" viewBox="0 0 2520 1260" xmlns="http://www.w3.org/2000/svg" xmlns:xlink="http://www.w3.org/1999/xlink" xmlns:fi="http://pattern.flaticon.com/"><rect x="0px" y="0px" width="100%" height="100%" opacity="1" fill="#c8ffe5"/><defs><path d="m38.674 6c-2.1231 0-4.2468.77324-5.8789 2.3203-.42719.40492-1.1627.40492-1.5898 0-1.632-1.5469-3.7587-2.3184-5.877-2.3184s-4.2466.77109-5.8789 2.3184c-.9674.91697-1.6411 2.0125-2.0352 3.1777-1.083-.32209-2.2273-.49805-3.4141-.49805-6.6125 0-12 5.3534-12 11.938 0 3.2921 1.2984 6.9523 3.4102 9.8809 1.7478 2.4238 4.1058 4.3823 6.8379 4.9863-.59693 1.0422-1.248 2.5516-1.248 4.1953 0 .89167.38786 1.6549.85938 2.2148s1.0195.97471 1.5098 1.373c.98052.79667 1.6309 1.3566 1.6309 2.4121 0 1.2778-.36333 1.88-.83398 2.5918-.47066.71178-1.166 1.5911-1.166 2.9082v3.5c0 .55228.44772 1 1 1s1-.44772 1-1v-3.5c0-.63365.30464-1.0042.83398-1.8047.52934-.80052 1.166-1.9731 1.166-3.6953 0-1.9444-1.3497-3.1346-2.3691-3.9629-.50974-.41416-.96174-.78062-1.2402-1.1113-.27849-.33071-.39062-.56745-.39062-.92578 0-1.5383 1.0643-3.3067 1.5391-4.0215 3.2482-.21854 6.0491-2.3842 8.0508-5.1602 1.5603-2.1638 2.6722-4.7271 3.1484-7.2461l3.5293 3.3457c.32318.30633.68887.5426 1.0762.71875-.6209 1.0437-1.3438 2.6303-1.3438 4.3633 0 .89167.38786 1.6549.85938 2.2148s1.0195.97471 1.5098 1.373c.98052.79667 1.6309 1.3566 1.6309 2.4121 0 1.2778-.36333 1.88-.83398 2.5918-.47066.71178-1.166 1.5911-1.166 2.9082v5.5c0 .55228.44772 1 1 1s1-.44772 1-1v-5.5c0-.63365.30464-1.0042.83398-1.8047.52934-.80052 1.166-1.9731 1.166-3.6953 0-1.9444-1.3497-3.1346-2.3691-3.9629-.50974-.41416-.96174-.78062-1.2402-1.1113-.27849-.33071-.39062-.56745-.39062-.92578 0-1.5649 1.0939-3.3546 1.5547-4.043.79397-.11011 1.5603-.45383 2.1777-1.0391l3.5293-3.3438c.47629 2.5186 1.5884 5.0807 3.1484 7.2441 1.7478 2.4238 4.1058 4.3823 6.8379 4.9863-.59693 1.0422-1.248 2.5516-1.248 4.1953 0 .89167.38786 1.6549.85938 2.2148s1.0195.97471 1.5098 1.373c.98052.79667 1.6309 1.3566 1.6309 2.4121 0 1.2778-.36333 1.88-.83398 2.5918-.47066.71178-1.166 1.5911-1.166 2.9082v3.5c0 .55228.44772 1 1 1s1-.44772 1-1v-3.5c0-.63365.30464-1.0042.83398-1.8047.52934-.80052 1.166-1.9731 1.166-3.6953 0-1.9444-1.3497-3.1346-2.3691-3.9629-.50974-.41416-.96174-.78062-1.2402-1.1113-.27849-.33071-.39062-.56745-.39062-.92578 0-1.5383 1.0643-3.3067 1.5391-4.0215 3.2482-.21854 6.0491-2.3842 8.0508-5.1602 2.1118-2.9286 3.4102-6.5888 3.4102-9.8809 0-6.5841-5.3875-11.938-12-11.938-1.1866 0-2.3327.17485-3.416.49609-.39413-1.1643-1.0665-2.2594-2.0332-3.1758-1.6321-1.5471-3.7538-2.3203-5.877-2.3203zm-13.346 2.002c1.6341 0 3.2587.5911 4.502 1.7695 1.2105 1.1474 3.1293 1.1474 4.3398 0 2.4862-2.3566 6.5197-2.3566 9.0059 0s2.4862 6.0321 0 8.3887l-9.8184 9.3066c-.73766.69921-1.9772.69921-2.7148 0l-9.8184-9.3066c-2.4862-2.3566-2.4862-6.0321 0-8.3887 1.2429-1.1781 2.8698-1.7695 4.5039-1.7695zm-11.328 4.998c1.0561 0 2.0715.16479 3.0254.46484-.1441 2.2129.65846 4.4731 2.4238 6.1465l4.5059 4.2715c-.22638 2.5487-1.3282 5.4635-2.9883 7.7656-1.8694 2.5925-4.3694 4.3516-6.9668 4.3516s-5.0974-1.7591-6.9668-4.3516-3.0332-5.9624-3.0332-8.7109c0-5.4971 4.4622-9.9375 10-9.9375zm36 0c5.5378 0 10 4.4404 10 9.9375 0 2.7485-1.1638 6.1184-3.0332 8.7109s-4.3694 4.3516-6.9668 4.3516-5.0974-1.7591-6.9668-4.3516c-1.6601-2.3022-2.7619-5.2169-2.9883-7.7656l4.5059-4.2715c1.7664-1.6743 2.5691-3.9363 2.4238-6.1504.95396-.299 1.9698-.46094 3.0254-.46094z" transform="matrix(1.1439428329467773 0.27236735820770264 -0.27236735820770264 1.1439428329467773 313.29644775390625 186.56826782226562)" id="L1_0"/><g transform="matrix(0.9375 0 0 0.9375 35 309)" id="L1_1"><path d="m27.553 30.105c-.49409.24697-.69435.84777-.44726 1.3418 0 0 .36717.71209 1.1445 1.334.77736.62189 2.0278 1.2187 3.75 1.2187s2.9726-.59686 3.75-1.2188 1.1445-1.334 1.1445-1.334c.24709-.49403.04682-1.0948-.44726-1.3418-.49403-.24709-1.0948-.04682-1.3418.44726 0 0-.13283.28791-.60547.66602s-1.2222.78125-2.5.78125-2.0274-.40314-2.5-.78125-.60547-.66602-.60547-.66602c-.31063-.56094-.90918-.65126-1.3418-.44726z"/><path d="m32 2c-11.034 0-20 8.9662-20 20 0 .70269.035454 1.4042.10547 2.1035-1.7714.40999-3.1055 2.0065-3.1055 3.8965 0 2.1973 1.8027 4 4 4 .45161 0 .88699-.076467 1.293-.2168 2.3306 4.8502 6.2802 8.8922 11.1 10.883-4.3957 2.3633-7.3926 7.003-7.3926 12.334v4c0 1.645 1.355 3 3 3h22c1.645 0 3-1.355 3-3v-4c0-5.3305-2.9958-9.9702-7.3906-12.334 4.8186-1.9909 8.7673-6.0332 11.098-10.883.40598.14033.84136.2168 1.293.2168 2.1973 0 4-1.8027 4-4 0-1.89-1.3341-3.4865-3.1055-3.8965.070015-.69932.10547-1.4008.10547-2.1035 0-11.034-8.9662-20-20-20zm0 2c9.953 0 18 8.047 18 18 0 .65477-.036572 1.3102-.10547 1.9629-1.8485-.1621-2.8809-.86267-3.5938-1.8203-.81594-1.0961-1.1756-2.6596-1.291-4.2188-.19659-2.6548-2.2586-4.9238-5.0098-4.9238h-16c-2.7511 0-4.8133 2.2692-5.0098 4.9238-.1154 1.5593-.47508 3.1225-1.291 4.2188-.71286.95777-1.7451 1.6582-3.5938 1.8203-.068897-.6527-.10547-1.3081-.10547-1.9629 0-9.953 8.047-18 18-18zm-8 11h16c1.6671 0 2.8861 1.3228 3.0156 3.0723.12955 1.7495.50534 3.688 1.6797 5.2656 1.0075 1.3534 2.6338 2.3416 4.8848 2.5957-1.7787 8.5026-9.0551 16.066-17.58 16.066s-15.801-7.5639-17.58-16.066c2.2511-.25452 3.8773-1.2441 4.8848-2.5977 1.1743-1.5778 1.5502-3.5141 1.6797-5.2637.12943-1.749 1.3484-3.0723 3.0156-3.0723zm-11.602 11.09c.25333 1.3109.62526 2.5994 1.1016 3.8496-.15953.040381-.3266.060547-.5.060547-1.1164 0-2-.88359-2-2 0-.90643.58181-1.659 1.3984-1.9102zm39.203 0c.81663.25118 1.3984 1.0037 1.3984 1.9102 0 1.1164-.88359 2-2 2-.1734 0-.34047-.020166-.5-.060547.47631-1.2502.84823-2.5387 1.1016-3.8496zm-22.99 17.562c1.1004.22378 2.2311.34766 3.3887.34766 1.1569 0 2.2869-.12412 3.3867-.34766-.72408 1.4322-2.0056 2.3477-3.3867 2.3477-1.3819 0-2.6651-.91402-3.3887-2.3477zm-1.9277.58984c.98634 2.2055 2.9543 3.7578 5.3164 3.7578 2.3613 0 4.3292-1.5517 5.3164-3.7559 3.962 1.9571 6.6836 6.0286 6.6836 10.756v4c0 .56413-.43587 1-1 1h-22c-.56413 0-1-.43587-1-1v-4c0-4.7274 2.7214-8.8008 6.6836-10.758z"/><path d="m58.08 2c-.73374 0-1.4356.26347-2.0801.6543-.6452-.38931-1.3493-.65039-2.0801-.65039-.99067 0-1.9901.35497-2.7617 1.0723-1.5446 1.4358-1.5446 3.8982 0 5.334l3.1504 2.9258c.9517.88465 2.4311.88465 3.3828 0l3.1504-2.9258c1.5446-1.4358 1.5446-3.8982 0-5.334-.77229-.71788-1.7673-1.0762-2.7617-1.0762zm-4.1602 2.0039c.51356 0 1.0175.18299 1.3984.53711a1.0001 1.0001 0 0 0 1.3633 0c.76067-.70707 2.0382-.70707 2.7988 0 .76066.70707.76066 1.6972 0 2.4043l-3.1504 2.9258c-.17133.15926-.48882.15926-.66016 0l-3.1504-2.9258c-.76067-.70707-.76067-1.6972 0-2.4043.38096-.35412.88683-.53711 1.4004-.53711z"/><path d="m10.08 2c-.73374 0-1.4356.26347-2.0801.6543-.6452-.38931-1.3493-.65039-2.0801-.65039-.99067 0-1.9901.35497-2.7617 1.0723-1.5446 1.4358-1.5446 3.8982 0 5.334l3.1504 2.9258c.9517.88465 2.4311.88465 3.3828 0l3.1504-2.9258c1.5446-1.4358 1.5446-3.8982 0-5.334-.77229-.71788-1.7673-1.0762-2.7617-1.0762zm-4.1602 2.0039c.51356 0 1.0175.18299 1.3984.53711a1.0001 1.0001 0 0 0 1.3633 0c.76067-.70707 2.0382-.70707 2.7988 0 .76066.70707.76066 1.6972 0 2.4043l-3.1504 2.9258c-.17133.15926-.48883.15926-.66016 0l-3.1504-2.9258c-.76067-.70707-.76067-1.6972 0-2.4043.38096-.35412.88683-.53711 1.4004-.53711z"/><path d="m25 22c-1.645 0-3 1.355-3 3s1.355 3 3 3 3-1.355 3-3-1.355-3-3-3zm0 2c.56413 0 1 .43587 1 1s-.43587 1-1 1-1-.43587-1-1 .43587-1 1-1z"/><path d="m39 22c-1.645 0-3 1.355-3 3s1.355 3 3 3 3-1.355 3-3-1.355-3-3-3zm0 2c.56413 0 1 .43587 1 1s-.43587 1-1 1-1-.43587-1-1 .43587-1 1-1z"/></g><g transform="matrix(0.9375 0 0 0.9375 99 233)" id="L1_2"><path d="m27.553 30.105c-.49409.24697-.69435.84777-.44726 1.3418 0 0 .36717.71209 1.1445 1.334.77736.62189 2.0278 1.2187 3.75 1.2187s2.9726-.59686 3.75-1.2188 1.1445-1.334 1.1445-1.334c.24709-.49403.04682-1.0948-.44726-1.3418-.49403-.24709-1.0948-.04682-1.3418.44726 0 0-.13283.28791-.60547.66602s-1.2222.78125-2.5.78125-2.0274-.40314-2.5-.78125-.60547-.66602-.60547-.66602c-.32235-.58437-.96386-.64345-1.3418-.44726z"/><path d="m10.08 2c-.73374 0-1.4356.26347-2.0801.6543-.6452-.38931-1.3493-.65039-2.0801-.65039-.99067 0-1.9901.35497-2.7617 1.0723-1.5446 1.4358-1.5446 3.8982 0 5.334l3.1504 2.9258c.9517.88465 2.4311.88464 3.3828 0l3.1504-2.9258c1.5446-1.4358 1.5446-3.8982 0-5.334-.77229-.71788-1.7673-1.0762-2.7617-1.0762zm21.92 0c-11.034 0-20 8.9662-20 20 0 .70269.03545 1.4042.10547 2.1035-1.7714.40999-3.1055 2.0065-3.1055 3.8965 0 2.1973 1.8027 4 4 4 .45201 0 .88679-.07828 1.293-.21875.34577.71971.72405 1.4233 1.1387 2.1035-1.0436.45466-1.9702 1.2934-2.6172 2.4141-.65362 1.1321-.91673 2.369-.7793 3.5098.03068.25465.08551.50572.16016.75-.25022.05748-.49539.13703-.73242.23828-1.0566.45134-1.9948 1.2995-2.6484 2.4316-.65362 1.1321-.91673 2.3671-.7793 3.5078.13744 1.1407.71468 2.2279 1.7441 2.8223 1.0295.59436 2.2598.55095 3.3164.09961s1.9948-1.2976 2.6484-2.4297c.65362-1.1321.91673-2.369.7793-3.5098-.03079-.2556-.08507-.50863-.16016-.75391.24991-.05758.49574-.13523.73242-.23633 1.0566-.45134 1.9948-1.2976 2.6484-2.4297.16184-.28031.29714-.5675.41016-.85742 1.5805 1.3427 3.3412 2.4416 5.2363 3.2246-4.395 2.3636-7.3906 7.0034-7.3906 12.334v4c0 1.645 1.355 3 3 3h22c1.645 0 3-1.355 3-3v-4c0-5.3305-2.9958-9.9702-7.3906-12.334 1.8951-.783 3.6558-1.8819 5.2363-3.2246.11292.29002.24821.57692.41016.85742.65362 1.1321 1.5918 1.9783 2.6484 2.4297.23669.1011.48251.17875.73242.23633-.07509.24528-.12936.49831-.16016.75391-.13744 1.1407.12568 2.3777.7793 3.5098s1.5918 1.9783 2.6484 2.4297 2.2869.49475 3.3164-.09961 1.6067-1.6815 1.7441-2.8223c.13743-1.1407-.12568-2.3757-.7793-3.5078s-1.5918-1.9803-2.6484-2.4316c-.23704-.10125-.4822-.1808-.73242-.23828.07465-.24428.12948-.49535.16016-.75.13744-1.1407-.12568-2.3777-.7793-3.5098-.64703-1.1207-1.5736-1.9594-2.6172-2.4141.41462-.68025.7929-1.3838 1.1387-2.1035.40643.14069.8407.21875 1.293.21875 2.1973 0 4-1.8027 4-4 0-1.89-1.3341-3.4865-3.1055-3.8965.070015-.69932.10547-1.4008.10547-2.1035 0-11.034-8.9662-20-20-20zm26.08 0c-.73374 0-1.4356.26347-2.0801.6543-.6452-.38931-1.3493-.65039-2.0801-.65039-.99067 0-1.9901.35497-2.7617 1.0723-1.5446 1.4358-1.5446 3.8982 0 5.334l3.1504 2.9258c.9517.88465 2.4311.88464 3.3828 0l3.1504-2.9258c1.5446-1.4358 1.5446-3.8982 0-5.334-.77229-.71788-1.7673-1.0762-2.7617-1.0762zm-26.08 2c9.953 0 18 8.047 18 18 0 .48253-.02482.96545-.0625 1.4473-2.1452-1.2622-5.2384-3.6979-8.2363-5.9922-1.805-1.3813-3.5965-2.7085-5.2285-3.7129s-3.056-1.7422-4.4727-1.7422-2.8406.73783-4.4727 1.7422c-1.632 1.0044-3.4235 2.3315-5.2285 3.7129-2.998 2.2943-6.0911 4.73-8.2363 5.9922-.037681-.48182-.0625-.96474-.0625-1.4473 0-9.953 8.047-18 18-18zm-26.08.00391c.51356 0 1.0175.18299 1.3984.53711.38404.3577.97925.3577 1.3633 0 .76067-.70707 2.0382-.70707 2.7988 0 .76066.70707.76066 1.6972 0 2.4043l-3.1504 2.9258c-.17133.15926-.48883.15926-.66016 0l-3.1504-2.9258c-.76067-.70707-.76067-1.6972 0-2.4043.38096-.35412.88683-.53711 1.4004-.53711zm48 0c.51356 0 1.0175.18299 1.3984.53711.38404.3577.97925.3577 1.3633 0 .76067-.70707 2.0382-.70707 2.7988 0 .76066.70707.76066 1.6972 0 2.4043l-3.1504 2.9258c-.17133.15926-.48882.15926-.66016 0l-3.1504-2.9258c-.76067-.70707-.76067-1.6972 0-2.4043.38096-.35412.88683-.53711 1.4004-.53711zm-21.92 9.9961c.58333 0 1.9095.51217 3.4258 1.4453 1.5163.93314 3.2721 2.231 5.0605 3.5996 3.2726 2.5044 6.5653 5.2283 9.1641 6.543-1.6509 8.6424-9.0099 16.412-17.65 16.412s-15.999-7.7698-17.65-16.412c2.5988-1.3147 5.8915-4.0386 9.1641-6.543 1.7885-1.3687 3.5442-2.6665 5.0605-3.5996 1.5163-.93314 2.8424-1.4453 3.4258-1.4453zm-19.602 12.09c.25317 1.3101.62373 2.5982 1.0996 3.8477-.15904.040039-.32527.0625-.49805.0625-1.1164 0-2-.88359-2-2 0-.90643.58181-1.659 1.3984-1.9102zm39.203 0c.81663.25118 1.3984 1.0037 1.3984 1.9102 0 1.1164-.88359 2-2 2-.17252 0-.33927-.02251-.49805-.0625.47588-1.2494.84644-2.5375 1.0996-3.8477zm-35.023 9.5059c.59656.81159 1.2419 1.583 1.9336 2.3047-.0715.45269-.23199.93422-.5 1.3984-.45095.78107-1.0936 1.3323-1.7012 1.5918-.60756.25961-1.1258.23993-1.5312.0059-.40542-.23407-.67878-.6722-.75781-1.3281s.07444-1.4885.52539-2.2695c.46728-.86763 1.3643-1.5292 2.0312-1.7032zm30.844 0c.92329.28633 1.5897.88854 2.0312 1.7031.45095.78107.60442 1.6136.52539 2.2695-.07903.65593-.3524 1.0941-.75781 1.3281-.40542.23407-.92369.25371-1.5312-.0059-.60756-.25952-1.2502-.81072-1.7012-1.5918-.26801-.46421-.4285-.94575-.5-1.3984.69167-.72172 1.337-1.4931 1.9336-2.3047zm-33.643 7.0332c.40542.23407.67878.67415.75781 1.3301.07903.65593-.07444 1.4885-.52539 2.2695-.45095.78107-1.0936 1.3303-1.7012 1.5898-.60756.2595-1.1258.24188-1.5312.0078-.40542-.23407-.67878-.67415-.75781-1.3301-.079026-.65593.07444-1.4865.52539-2.2676.45095-.78107 1.0956-1.3323 1.7031-1.5918.62839-.2734 1.0663-.23877 1.5293-.0078zm37.971.007813c.60756.25952 1.2522.81072 1.7031 1.5918.45095.78107.60442 1.6117.52539 2.2676-.07903.65593-.3524 1.096-.75781 1.3301s-.92369.2517-1.5312-.0078c-.60756-.25952-1.2502-.80877-1.7012-1.5898-.45095-.78107-.60442-1.6136-.52539-2.2695.07903-.65593.3524-1.096.75781-1.3301.54389-.29425 1.0472-.19597 1.5293.0078zm-23.139 1.0156c1.1004.22378 2.2311.34766 3.3887.34766s2.2883-.12388 3.3887-.34766c-.72349 1.4332-2.0071 2.3477-3.3887 2.3477s-2.6652-.91445-3.3887-2.3477zm-1.9297.58594c.98663 2.2068 2.9553 3.7617 5.3184 3.7617 2.3618 0 4.3278-1.5527 5.3145-3.7578 3.9633 1.9566 6.6855 6.0296 6.6855 10.758v4c0 .56413-.43587 1-1 1h-22c-.56413 0-1-.43587-1-1v-4c0-4.7277 2.719-8.8049 6.6816-10.762z"/><path d="m25 22c-1.645 0-3 1.355-3 3s1.355 3 3 3 3-1.355 3-3-1.355-3-3-3zm0 2c.56413 0 1 .43587 1 1s-.43587 1-1 1-1-.43587-1-1 .43587-1 1-1z"/><path d="m39 22c-1.645 0-3 1.355-3 3s1.355 3 3 3 3-1.355 3-3-1.355-3-3-3zm0 2c.56413 0 1 .43587 1 1s-.43587 1-1 1-1-.43587-1-1 .43587-1 1-1z"/></g><g transform="matrix(0.6629126071929932 0.2651650309562683 -0.2651650309562683 0.6629126071929932 316.2720642089844 87.301513671875)" id="L1_3"><path d="m17.617 14.076c-4.2519 1.7612-8.0012 6.3936-10.832 10.559-2.8308 4.1649-4.6816 7.9238-4.6816 7.9238-.13432.27284-.13719.59197-.0078125.86719-.0000025 0 8.3646 17.574 29.904 17.574s29.904-17.574 29.904-17.574c.12938-.27522.1265-.59435-.0078-.86719 0 0-1.8508-3.7589-4.6816-7.9238-2.8309-4.1649-6.5801-8.7974-10.832-10.559-2.5305-1.0482-5.1225-.45047-7.541.29102-2.4185.74148-4.7538 1.6328-6.8418 1.6328s-4.4233-.89133-6.8418-1.6328c-2.5505-.76375-5.1199-1.2714-7.541-.29102zm6.9551 2.2031c2.3142.70951 4.8017 1.7207 7.4277 1.7207s5.1135-1.0112 7.4277-1.7207c2.3142-.70951 4.3647-1.1113 6.1895-.35547 3.4471 1.4278 7.199 5.7962 9.9434 9.834 1.8204 2.6784 3.0701 4.9282 3.7383 6.1934-8.3624-.45805-18.266-4.0172-27.307-3.9512-9.0223.06586-18.921 3.5089-27.291 3.9512.66815-1.2652 1.9178-3.515 3.7383-6.1934 2.7444-4.0378 6.4963-8.4062 9.9434-9.834 2.078-.755 4.256-.23344 6.1895.35547zm7.4355 13.721c3.4709-.02534 7.1684.55597 10.932 1.2812-3.8959.3885-8.0304.71875-10.939.71875-2.863 0-6.9125-.31692-10.754-.69727 3.7022-.70441 7.3404-1.2778 10.762-1.3027zm17.445 2.582c3.3472.65539 6.6755 1.221 9.8711 1.375-2.0173 3.5101-9.9483 15.043-27.324 15.043s-25.307-11.533-27.324-15.043c3.2331-.15106 6.6015-.71181 9.9922-1.3633 4.9266.59308 12.489 1.4062 17.332 1.4062 4.8814 0 12.533-.82401 17.453-1.418z"/><g><path d="m58.08 6c-.73374 0-1.4356.26347-2.0801.6543-.6452-.38931-1.3493-.65039-2.0801-.65039-.99067 0-1.9901.35497-2.7617 1.0723-1.5446 1.4358-1.5446 3.8982 0 5.334l3.1504 2.9258c.9517.88465 2.4311.88465 3.3828 0l3.1504-2.9258c1.5446-1.4358 1.5446-3.8982 0-5.334-.77229-.71788-1.7673-1.0762-2.7617-1.0762zm-4.1602 2.0039c.51356 0 1.0175.18299 1.3984.53711a1.0001 1.0001 0 0 0 1.3633 0c.76067-.70707 2.0382-.70707 2.7988 0 .76066.70707.76066 1.6972 0 2.4043l-3.1504 2.9258c-.17133.15926-.48882.15926-.66016 0l-3.1504-2.9258c-.76067-.70707-.76067-1.6972 0-2.4043.38096-.35412.88683-.53711 1.4004-.53711z"/><path d="m10.08 48.001c-.73374 0-1.4356.26347-2.0801.6543-.6452-.38931-1.3493-.65039-2.0801-.65039-.99067 0-1.9901.35497-2.7617 1.0723-1.5446 1.4358-1.5446 3.8963 0 5.332l3.1504 2.9277c.9517.88465 2.4311.88465 3.3828 0l3.1504-2.9277c1.5446-1.4358 1.5446-3.8963 0-5.332-.77229-.71788-1.7673-1.0762-2.7617-1.0762zm-4.1602 2.0039c.51356 0 1.0175.18299 1.3984.53711a1.0001 1.0001 0 0 0 1.3633 0c.76067-.70708 2.0382-.70707 2.7988 0 .76066.70707.76066 1.6953 0 2.4023l-3.1504 2.9277c-.17133.15926-.48883.15926-.66016 0l-3.1504-2.9277c-.76067-.70707-.76067-1.6953 0-2.4023.38096-.35412.88683-.53711 1.4004-.53711z"/></g></g><g transform="matrix(0.9375 0 0 0.9375 173 134)" id="L1_4"><path d="m41.232 14c-1.5869 0-3.1821.58982-4.4023 1.7676-2.4401 2.3551-2.4401 6.2425 0 8.5977l7.0137 6.7695c1.1954 1.1538 3.1171 1.1538 4.3125 0l7.0137-6.7695c2.4401-2.3551 2.4401-6.2426 0-8.5977s-6.3646-2.3551-8.8047 0c-.19639.18955-.53408.18955-.73047 0-1.2199-1.1774-2.8155-1.7676-4.4023-1.7676zm0 2c1.0938 0 2.1795.40191 3.0137 1.207.97362.93971 2.5342.93971 3.5078 0 1.6681-1.61 4.3593-1.61 6.0273 0 1.6681 1.61 1.6681 4.1088 0 5.7188l-7.0156 6.7695c-.41819.40362-1.1131.40362-1.5312 0l-7.0156-6.7695c-1.6681-1.61-1.6681-4.1088 0-5.7188.83384-.80479 1.9198-1.207 3.0137-1.207z"/><path d="m46 6c-8.8247 0-16 7.1753-16 16s7.1753 16 16 16c2.6335.0088 5.1706-.7478 7.1329-1.7168.15374-.08489.43565-.11765.56641-.07813l5.1757 1.2949c1.5418.38546 3.0105-1.0832 2.625-2.625l-1.2949-5.1758c-.01999-.09565-.0029-.42049.07813-.56641 1.1146-2.2077 1.7037-4.6474 1.7168-7.127-.27928-10.534-8.755-15.967-16-16.006zm0 2c7.7425 0 13.998 6.2541 14 13.996-.01172 2.169-.527 4.3032-1.502 6.2344-.3162.62632-.41419 1.226-.23242 1.9531l1.293 5.1758c.04085.16339-.03583.24007-.19922.19922l-5.1758-1.293c-.72708-.18177-1.3268-.08378-1.9531.23242-1.93.97436-4.0628 1.4896-6.2305 1.502-7.7438 0-14-6.2562-14-14s6.2562-14 14-14z"/><path d="m22.768 34c1.5869 0 3.1821.58982 4.4023 1.7676 2.4401 2.3551 2.4401 6.2425 0 8.5977l-7.0137 6.7695c-1.1954 1.1538-3.1171 1.1538-4.3125 0l-7.0137-6.7695c-2.4401-2.3551-2.4401-6.2426 0-8.5977s6.3646-2.3551 8.8047 0c.19639.18955.53408.18955.73047 0 1.2199-1.1774 2.8155-1.7676 4.4023-1.7676zm0 2c-1.0938 0-2.1795.40191-3.0137 1.207-.97362.93971-2.5342.93971-3.5078 0-1.6681-1.61-4.3593-1.61-6.0273 0-1.6681 1.61-1.6681 4.1088 0 5.7188l7.0156 6.7695c.41819.40362 1.1131.40362 1.5312 0l7.0156-6.7695c1.6681-1.61 1.6681-4.1088 0-5.7188-.83384-.80479-1.9198-1.207-3.0137-1.207z"/><path d="m18 26c8.8247 0 16 7.1753 16 16s-7.1753 16-16 16c-2.6335.0088-5.1706-.7478-7.1329-1.7168-.15374-.08489-.43565-.11765-.56641-.07813l-5.1757 1.2949c-1.5418.38546-3.0105-1.0832-2.625-2.625l1.2949-5.1758c.01999-.09565.0029-.42049-.07813-.56641-1.1146-2.2077-1.7037-4.6474-1.7168-7.127.27928-10.534 8.755-15.967 16-16.006zm0 2c-7.7425 0-13.998 6.2541-14 13.996.01172 2.169.527 4.3032 1.502 6.2344.3162.62632.41419 1.226.23242 1.9531l-1.293 5.1758c-.04085.16339.03583.24007.19922.19922l5.1758-1.293c.72708-.18177 1.3268-.08378 1.9531.23242 1.93.97436 4.0628 1.4896 6.2305 1.502 7.7438 0 14-6.2562 14-14s-6.2562-14-14-14z"/></g><g transform="matrix(0.9375 0 0 0.9375 132 329)" id="L1_5"><path d="m32 2c-7.1677 0-13 5.8322-13 13v6.0527c-3.2186.23639-6.3787 1.51-8.8592 3.8457-5.5214 5.199-5.5214 13.701 0 18.9l17.523 16.5c2.4082 2.2676 6.2635 2.2676 8.6717 0l17.523-16.5c5.5214-5.199 5.5214-13.701 0-18.9-2.4812-2.3363-5.6367-3.6132-8.8592-3.8496v-6.0488c0-7.1678-5.832-13-13-13zm0 2c6.0869 0 11 4.913 11 11v6.041c-.67087.04107-1.3394.12395-2 .25586v-6.2969c0-4.9587-4.0412-9-8.9998-9s-8.9998 4.0413-8.9998 9v6.2988c-.66149-.13197-1.3285-.21296-2-.25391v-6.0449c0-6.087 4.9129-11 11-11zm0 4c3.8778 0 6.9999 3.1222 6.9999 7v6.8496c-1.8326.64618-3.5575 1.6539-5.039 3.0488-1.0686 1.0062-2.8532 1.0062-3.9218 0-1.4812-1.3947-3.2065-2.4017-5.039-3.0469v-6.8516c0-3.8778 3.1221-7 6.9999-7zm-11.908 15.004c3.1078 0 6.2053 1.1193 8.576 3.3516 1.8541 1.7459 4.8098 1.7459 6.6639 0 4.7412-4.4643 12.415-4.4643 17.156 0 4.7412 4.4643 4.7412 11.524 0 15.988l-17.523 16.5c-1.6227 1.528-4.3069 1.528-5.9296 0l-17.523-16.5c-4.7412-4.4643-4.7412-11.524 0-15.988 2.3704-2.232 5.4721-3.3516 8.5799-3.3516z"/><path d="m32 32c-2.7496 0-5 2.2504-5 5a1.0001 1.0001 0 0 0 0 .002c.0042 1.5361.81452 2.8796 2 3.8164v7.1816c0 1.6447 1.3553 3 3 3s3-1.3553 3-3v-7.1816c1.1855-.93683 1.9958-2.2804 2-3.8164a1.0001 1.0001 0 0 0 0-.001953c0-2.7496-2.2504-5-5-5zm0 2c1.6687 0 3 1.3313 3 3-.0036 1.0697-.57353 2.053-1.5 2.5879a1.0001 1.0001 0 0 0 -.5.86523v7.5469c0 .5713-.4287 1-1 1s-1-.4287-1-1v-7.5469a1.0001 1.0001 0 0 0 -.5-.86523c-.92703-.53522-1.4971-1.5194-1.5-2.5898.001046-1.6678 1.332-2.998 3-2.998z"/></g><g transform="matrix(0.9375 0 0 0.9375 206 220)" id="L1_6"><path d="m22 18c-11.034.000001-20 8.9662-20 20 .0000006 11.034 8.9662 20 20 20 3.6465 0 7.0639-.98378 10.01-2.6934 2.9425 1.705 6.3494 2.6934 9.9902 2.6934 11.034 0 20-8.9662 20-20 0-11.034-8.9662-20-20-20-3.6406 0-7.0499.98644-9.9922 2.6914-2.9453-1.7087-6.3622-2.6914-10.008-2.6914zm0 2c9.953 0 18 8.047 18 18-.000001 9.953-8.047 18-18 18-9.953-.000001-18-8.047-18-18s8.047-18 18-18zm20 0c9.953 0 18 8.047 18 18-.000001 9.953-8.047 18-18 18-2.9184 0-5.668-.70006-8.1035-1.9297.61899-.4593 1.2082-.95629 1.7695-1.4824 1.9259.90234 4.0699 1.4121 6.334 1.4121 8.2724-.000001 15-6.7276 15-15s-6.7276-15-15-15c-1.734 0-3.3972.30336-4.9473.84766-.94542-1.0808-2.0032-2.0611-3.1582-2.918 2.4357-1.2301 5.1866-1.9297 8.1055-1.9297zm-20 4c-8.2724 0-15 6.7276-15 15 .0000012 8.2724 6.7276 15 15 15 8.2724-.000001 15-6.7276 15-15s-6.7276-15-15-15zm0 2c1.2647 0 2.4856.18239 3.6406.51758-2.2895 3.2517-3.6406 7.2092-3.6406 11.482 0 4.9897 1.8375 9.553 4.8672 13.059-1.5031.60575-3.1445.94141-4.8672.94141-7.1915 0-13-5.8085-13-13s5.8085-13 13-13zm20 0c7.1915.000001 13 5.8085 13 13-.000001 7.1915-5.8085 13-13 13-1.7226 0-3.3626-.33723-4.8652-.94336 3.0282-3.5058 4.8652-8.0679 4.8652-13.057 0-4.2721-1.3489-8.2306-3.6367-11.482 1.1535-.33538 2.3732-.51758 3.6367-.51758zm-14.439 1.2441c1.1139.52668 2.1407 1.2071 3.0527 2.0137-2.2481 2.6231-3.6133 6.0239-3.6133 9.7422 0 3.7186 1.363 7.121 3.6113 9.7441-.58843.52019-1.224.98878-1.9004 1.3965-2.9241-3.1994-4.7109-7.457-4.7109-12.141 0-4.0353 1.3243-7.7563 3.5605-10.756zm4.4414 3.4434c1.8726 2.2519 2.998 5.1478 2.998 8.3125 0 3.1642-1.126 6.0588-2.998 8.3105-1.873-2.2517-3.002-5.1457-3.002-8.3105 0-3.1653 1.1287-6.0605 3.002-8.3125z"/><path d="m34.08 6c-.73374 0-1.4356.26347-2.0801.6543-.6452-.38931-1.3493-.65039-2.0801-.65039-.99067 0-1.9901.35497-2.7617 1.0723-1.5446 1.4358-1.5446 3.8982 0 5.334l3.1504 2.9258c.9517.88465 2.4311.88465 3.3828 0l3.1504-2.9258c1.5446-1.4358 1.5446-3.8982 0-5.334-.77229-.71788-1.7673-1.0762-2.7617-1.0762zm-4.1602 2.0039c.51356 0 1.0175.18299 1.3984.53711a1.0001 1.0001 0 0 0 1.3633 0c.76067-.70707 2.0382-.70707 2.7988 0 .76066.70707.76066 1.6972 0 2.4043l-3.1504 2.9258c-.17133.15926-.48882.15926-.66016 0l-3.1504-2.9258c-.76067-.70707-.76067-1.6972 0-2.4043.38096-.35412.88683-.53711 1.4004-.53711z"/></g></defs><g fi:class="KUsePattern"><pattern id="pattern_L1_0" width="350" height="350" patternUnits="userSpaceOnUse"><use xlink:href="#L1_0" x="-350" y="-350"/><use xlink:href="#L1_0" x="0" y="-350"/><use xlink:href="#L1_0" x="350" y="-350"/><use xlink:href="#L1_0" x="-350" y="0"/><use xlink:href="#L1_0" x="0" y="0"/><use xlink:href="#L1_0" x="350" y="0"/><use xlink:href="#L1_0" x="-350" y="350"/><use xlink:href="#L1_0" x="0" y="350"/><use xlink:href="#L1_0" x="350" y="350"/></pattern><rect x="0" y="0" width="100%" height="100%" fill="url(#pattern_L1_0)"/></g><g fi:class="KUsePattern"><pattern id="pattern_L1_1" width="350" height="350" patternUnits="userSpaceOnUse"><use xlink:href="#L1_1" x="-350" y="-350"/><use xlink:href="#L1_1" x="0" y="-350"/><use xlink:href="#L1_1" x="350" y="-350"/><use xlink:href="#L1_1" x="-350" y="0"/><use xlink:href="#L1_1" x="0" y="0"/><use xlink:href="#L1_1" x="350" y="0"/><use xlink:href="#L1_1" x="-350" y="350"/><use xlink:href="#L1_1" x="0" y="350"/><use xlink:href="#L1_1" x="350" y="350"/></pattern><rect x="0" y="0" width="100%" height="100%" fill="url(#pattern_L1_1)"/></g><g fi:class="KUsePattern"><pattern id="pattern_L1_2" width="350" height="350" patternUnits="userSpaceOnUse"><use xlink:href="#L1_2" x="-350" y="-350"/><use xlink:href="#L1_2" x="0" y="-350"/><use xlink:href="#L1_2" x="350" y="-350"/><use xlink:href="#L1_2" x="-350" y="0"/><use xlink:href="#L1_2" x="0" y="0"/><use xlink:href="#L1_2" x="350" y="0"/><use xlink:href="#L1_2" x="-350" y="350"/><use xlink:href="#L1_2" x="0" y="350"/><use xlink:href="#L1_2" x="350" y="350"/></pattern><rect x="0" y="0" width="100%" height="100%" fill="url(#pattern_L1_2)"/></g><g fi:class="KUsePattern"><pattern id="pattern_L1_3" width="350" height="350" patternUnits="userSpaceOnUse"><use xlink:href="#L1_3" x="-350" y="-350"/><use xlink:href="#L1_3" x="0" y="-350"/><use xlink:href="#L1_3" x="350" y="-350"/><use xlink:href="#L1_3" x="-350" y="0"/><use xlink:href="#L1_3" x="0" y="0"/><use xlink:href="#L1_3" x="350" y="0"/><use xlink:href="#L1_3" x="-350" y="350"/><use xlink:href="#L1_3" x="0" y="350"/><use xlink:href="#L1_3" x="350" y="350"/></pattern><rect x="0" y="0" width="100%" height="100%" fill="url(#pattern_L1_3)"/></g><g fi:class="KUsePattern"><pattern id="pattern_L1_4" width="350" height="350" patternUnits="userSpaceOnUse"><use xlink:href="#L1_4" x="-350" y="-350"/><use xlink:href="#L1_4" x="0" y="-350"/><use xlink:href="#L1_4" x="350" y="-350"/><use xlink:href="#L1_4" x="-350" y="0"/><use xlink:href="#L1_4" x="0" y="0"/><use xlink:href="#L1_4" x="350" y="0"/><use xlink:href="#L1_4" x="-350" y="350"/><use xlink:href="#L1_4" x="0" y="350"/><use xlink:href="#L1_4" x="350" y="350"/></pattern><rect x="0" y="0" width="100%" height="100%" fill="url(#pattern_L1_4)"/></g><g fi:class="KUsePattern"><pattern id="pattern_L1_5" width="350" height="350" patternUnits="userSpaceOnUse"><use xlink:href="#L1_5" x="-350" y="-350"/><use xlink:href="#L1_5" x="0" y="-350"/><use xlink:href="#L1_5" x="350" y="-350"/><use xlink:href="#L1_5" x="-350" y="0"/><use xlink:href="#L1_5" x="0" y="0"/><use xlink:href="#L1_5" x="350" y="0"/><use xlink:href="#L1_5" x="-350" y="350"/><use xlink:href="#L1_5" x="0" y="350"/><use xlink:href="#L1_5" x="350" y="350"/></pattern><rect x="0" y="0" width="100%" height="100%" fill="url(#pattern_L1_5)"/></g><g fi:class="KUsePattern"><pattern id="pattern_L1_6" width="350" height="350" patternUnits="userSpaceOnUse"><use xlink:href="#L1_6" x="-350" y="-350"/><use xlink:href="#L1_6" x="0" y="-350"/><use xlink:href="#L1_6" x="350" y="-350"/><use xlink:href="#L1_6" x="-350" y="0"/><use xlink:href="#L1_6" x="0" y="0"/><use xlink:href="#L1_6" x="350" y="0"/><use xlink:href="#L1_6" x="-350" y="350"/><use xlink:href="#L1_6" x="0" y="350"/><use xlink:href="#L1_6" x="350" y="350"/></pattern><rect x="0" y="0" width="100%" height="100%" fill="url(#pattern_L1_6)"/></g></svg>